<?xml version="1.0" encoding="UTF-8"?>
<svg width="181px" height="78px" viewBox="0 0 181 78" version="1.1" xmlns="http://www.w3.org/2000/svg" xmlns:xlink="http://www.w3.org/1999/xlink">
    <!-- Generator: Sketch 51.2 (57519) - http://www.bohemiancoding.com/sketch -->
    <title>logos/payment/virementbancaire_fr</title>
    <desc>Created with Sketch.</desc>
    <defs>
        <rect id="path-1" x="0" y="0" width="181" height="78"></rect>
    </defs>
    <g id="logos/payment/virementbancaire_fr" stroke="none" stroke-width="1" fill="none" fill-rule="evenodd">
        <mask id="mask-2" fill="white">
            <use xlink:href="#path-1"></use>
        </mask>
        <use id="Rectangle-4" fill="#FFFFFF" xlink:href="#path-1"></use>
        <g id="virementbancaire" mask="url(#mask-2)">
            <g transform="translate(28.000000, 18.000000)">
                <path d="M18.1467337,0.767056075 L11.1332663,18.0200935 L7.00120603,18.0200935 L0,0.767056075 L4.25467337,0.767056075 L9.14693467,13.3719626 L14.0269347,0.767056075 L18.1467337,0.767056075 Z M24.0689447,3.10257009 L20.0349749,3.10257009 L20.0349749,0 L24.0689447,0 L24.0689447,3.10257009 Z M23.9340704,18.0200935 L20.1698492,18.0200935 L20.1698492,4.76261682 L23.9340704,4.76261682 L23.9340704,18.0200935 Z M37.4337688,8.34602804 L37.3111558,8.34602804 C36.8043526,8.22390905 36.1259004,8.16285047 35.2757789,8.16285047 C33.9433769,8.16285047 32.7172585,8.36129085 31.5973869,8.75817757 L31.5973869,18.0200935 L27.8331658,18.0200935 L27.8331658,4.76261682 L31.5973869,4.76261682 L31.5973869,7.16682243 C32.7499555,6.19750294 33.6981537,5.54684745 34.4420101,5.21483645 C35.1858664,4.88282544 35.9174503,4.71682243 36.6367839,4.71682243 C36.8247916,4.71682243 37.0904505,4.72445475 37.4337688,4.73971963 L37.4337688,8.34602804 Z M52.4170854,11.9408879 L42.3505528,11.9408879 C42.5140377,14.5969759 44.1284269,15.925 47.1937688,15.925 C48.7959209,15.925 50.4062231,15.3831051 52.0247236,14.2992991 L52.159598,14.2992991 L52.159598,17.3446262 C50.2386504,18.0315455 48.4321693,18.375 46.7401005,18.375 C44.0752966,18.375 42.0440271,17.783495 40.6462312,16.6004673 C39.2484352,15.4174396 38.5495477,13.7116155 38.5495477,11.4829439 C38.5495477,9.26953722 39.2116517,7.52745963 40.5358794,6.25665888 C41.8601071,4.98585813 43.6870235,4.35046729 46.0166834,4.35046729 C50.2836394,4.35046729 52.4170854,6.46843676 52.4170854,10.7044393 L52.4170854,11.9408879 Z M48.6528643,9.94883178 C48.6201673,7.66673314 47.6270114,6.52570093 45.6733668,6.52570093 C43.5971085,6.52570093 42.4895149,7.66673314 42.3505528,9.94883178 L48.6528643,9.94883178 Z M77.1849246,18.0200935 L73.3961809,18.0200935 L73.3961809,11.3684579 C73.3961809,10.4830953 73.3532668,9.70650645 73.2674372,9.03866822 C73.1816076,8.37082999 72.9322969,7.91479873 72.5194975,7.67056075 C72.1066981,7.42632277 71.5365531,7.30420561 70.8090452,7.30420561 C70.1632799,7.30420561 69.2518652,7.64002779 68.0747739,8.31168224 L68.0747739,18.0200935 L64.2860302,18.0200935 L64.2860302,11.3684579 C64.2860302,10.4373006 64.2369854,9.64926335 64.1388945,9.00432243 C64.0408035,8.35938151 63.7853622,7.91479873 63.3725628,7.67056075 C62.9597634,7.42632277 62.3977925,7.30420561 61.6866332,7.30420561 C61.0081708,7.30420561 60.1008432,7.64384396 58.9646231,8.32313084 L58.9646231,18.0200935 L55.200402,18.0200935 L55.200402,4.76261682 L58.9646231,4.76261682 L58.9646231,6.61728972 C60.2071084,5.66323511 61.149176,5.05455739 61.7908543,4.79123832 C62.4325325,4.52791924 63.09668,4.39626168 63.7833166,4.39626168 C65.565302,4.39626168 66.8813358,5.24344947 67.7314573,6.93785047 C68.9330713,5.96089854 69.913966,5.29307033 70.6741709,4.93434579 C71.4343757,4.57562126 72.1782208,4.39626168 72.9057286,4.39626168 C75.7585402,4.39626168 77.1849246,6.03339484 77.1849246,9.30771028 L77.1849246,18.0200935 Z M93.7622111,11.9408879 L83.6956784,11.9408879 C83.8591633,14.5969759 85.4735525,15.925 88.5388945,15.925 C90.1410465,15.925 91.7513487,15.3831051 93.3698492,14.2992991 L93.5047236,14.2992991 L93.5047236,17.3446262 C91.583776,18.0315455 89.7772949,18.375 88.0852261,18.375 C85.4204222,18.375 83.3891527,17.783495 81.9913568,16.6004673 C80.5935609,15.4174396 79.8946734,13.7116155 79.8946734,11.4829439 C79.8946734,9.26953722 80.5567773,7.52745963 81.881005,6.25665888 C83.2052328,4.98585813 85.0321492,4.35046729 87.361809,4.35046729 C91.6287651,4.35046729 93.7622111,6.46843676 93.7622111,10.7044393 L93.7622111,11.9408879 Z M89.9979899,9.94883178 C89.965293,7.66673314 88.9721371,6.52570093 87.0184925,6.52570093 C84.9422342,6.52570093 83.8346406,7.66673314 83.6956784,9.94883178 L89.9979899,9.94883178 Z M109.836784,18.0200935 L106.04804,18.0200935 L106.04804,11.4142523 C106.04804,9.5672026 105.829382,8.42044616 105.39206,7.9739486 C104.954738,7.52745104 104.245633,7.30420561 103.264724,7.30420561 C102.447299,7.30420561 101.462317,7.64384396 100.309749,8.32313084 L100.309749,18.0200935 L96.5455276,18.0200935 L96.5455276,4.76261682 L100.309749,4.76261682 L100.309749,6.61728972 C101.48684,5.71666216 102.428908,5.12134101 103.13598,4.83130841 C103.843052,4.54127581 104.580767,4.39626168 105.349146,4.39626168 C108.340919,4.39626168 109.836784,6.03339484 109.836784,9.30771028 L109.836784,18.0200935 Z M122,17.9399533 C120.994568,18.1689264 119.919671,18.2834112 118.775276,18.2834112 C117.083208,18.2834112 115.844828,17.9456809 115.060101,17.2702103 C114.275373,16.5947396 113.883015,15.5014094 113.883015,13.9901869 L113.883015,7.08668224 L112.019296,7.08668224 L112.019296,4.76261682 L113.895276,4.76261682 L113.895276,1.04182243 L117.647236,1.04182243 L117.647236,4.76261682 L122,4.76261682 L122,7.08668224 L117.647236,7.08668224 L117.647236,12.5476636 C117.647236,13.9520319 117.839328,14.8679106 118.223518,15.2953271 C118.607707,15.7227436 119.253463,15.9364486 120.160804,15.9364486 C120.741175,15.9364486 121.317451,15.802883 121.889648,15.5357477 L122,15.5357477 L122,17.9399533 Z" id="Virement" fill="#EA6201"></path>
                <path d="M18.7952378,31.9824766 L18.7707707,32.0740654 C20.9402042,32.5396441 22.0249047,33.6959409 22.0249047,35.5429907 C22.0249047,37.313716 21.2582743,38.7733977 19.7249904,39.9220794 C18.1917066,41.0707612 16.0834729,41.6450935 13.4002261,41.6450935 L5.19148936,41.6450935 L9.44877755,24.3920561 L15.5655709,24.3920561 C16.6013531,24.3920561 17.4760458,24.4168611 18.1896753,24.466472 C18.9033048,24.5160828 19.5883788,24.6801777 20.2449179,24.9587617 C20.901457,25.2373456 21.3867177,25.601789 21.7007147,26.0521028 C22.0147117,26.5024166 22.1717078,27.032863 22.1717078,27.6434579 C22.1717078,29.6126267 21.0462291,31.0589518 18.7952378,31.9824766 Z M12.8252475,27.0366822 L11.773159,31.3184579 L13.2411894,31.3184579 C14.578735,31.3184579 15.5329452,31.2364105 16.1038487,31.0723131 C16.6747523,30.9082157 17.115157,30.6181874 17.4250761,30.2022196 C17.7349952,29.7862518 17.8899524,29.2844266 17.8899524,28.696729 C17.8899524,28.1013989 17.6595555,27.6758969 17.1987548,27.4202103 C16.737954,27.1645236 15.5655804,27.0366822 13.6815986,27.0366822 L12.8252475,27.0366822 Z M11.1614797,33.8142523 L9.87695309,39.0004673 L11.5774216,39.0004673 C12.7600076,39.0004673 13.6591672,38.9852026 14.2749275,38.9546729 C14.8906878,38.9241431 15.4819719,38.7810371 16.0487976,38.5253505 C16.6156233,38.2696638 17.0478724,37.9071285 17.3455578,37.4377336 C17.6432432,36.9683388 17.7920837,36.405455 17.7920837,35.7490654 C17.7920837,35.2911192 17.6534378,34.9056869 17.3761418,34.592757 C17.0988458,34.2798271 16.6931025,34.0718463 16.1588999,33.9688084 C15.6246973,33.8657705 14.6235921,33.8142523 13.1555543,33.8142523 L11.1614797,33.8142523 Z M35.3350471,41.6450935 L31.579336,41.6450935 L32.0075115,39.9278037 C30.7678352,40.8207989 29.7850802,41.3894069 29.0592171,41.6336449 C28.333354,41.8778828 27.5830349,42 26.8082372,42 C25.7072088,42 24.8223216,41.7023394 24.1535488,41.1070093 C23.4847761,40.5116793 23.1503947,39.7293662 23.1503947,38.7600467 C23.1503947,37.0580133 23.8905193,35.7586104 25.3707907,34.8617991 C26.8510621,33.9649877 29.6300974,33.4135524 33.7079801,33.2074766 L33.7936152,32.8525701 C33.8425498,32.6464943 33.8670167,32.4289731 33.8670167,32.2 C33.8670167,31.0551345 32.8394057,30.4827103 30.7841529,30.4827103 C29.528165,30.4827103 27.9378146,30.8376133 26.013054,31.5474299 L25.8784846,31.5474299 L26.5635654,28.753972 C28.6595971,28.3189231 30.3396595,28.1014019 31.6038032,28.1014019 C35.6327512,28.1014019 37.647195,29.2462502 37.647195,31.5359813 C37.647195,32.0397221 37.5697164,32.604514 37.4147569,33.2303738 L35.3350471,41.6450935 Z M33.1941694,35.0964953 C30.9350225,35.2644089 29.3548666,35.5830584 28.4536546,36.0524533 C27.5524425,36.5218481 27.1018432,37.1915844 27.1018432,38.0616822 C27.1018432,39.0844288 27.7135165,39.5957944 28.9368813,39.5957944 C30.127623,39.5957944 31.2734908,39.2027298 32.3745191,38.4165888 L33.1941694,35.0964953 Z M52.2785648,41.6450935 L48.4739193,41.6450935 L50.0887528,35.0850467 C50.3742045,33.9249163 50.5169283,33.0777285 50.5169283,32.5434579 C50.5169283,31.4901816 49.8930216,30.9635514 48.6451895,30.9635514 C47.7154323,30.9635514 46.5817979,31.3184544 45.2442524,32.028271 L42.858703,41.6450935 L39.0785247,41.6450935 L42.3326588,28.4792056 L46.1128371,28.4792056 L45.6479608,30.3224299 C47.1159985,29.3149482 48.1803099,28.694822 48.8409269,28.4620327 C49.5015439,28.2292434 50.1499175,28.1128505 50.7860672,28.1128505 C51.9360301,28.1128505 52.8453843,28.4391323 53.514157,29.0917056 C54.1829298,29.744279 54.5173112,30.6391688 54.5173112,31.7764019 C54.5173112,32.3106725 54.4357547,32.9098098 54.2726394,33.5738318 L52.2785648,41.6450935 Z M70.0172656,29.3721963 L69.2832504,32.4518692 L69.087513,32.4518692 C68.3208711,31.6504633 67.6419138,31.1314654 67.0506208,30.8948598 C66.4593278,30.6582543 65.8456157,30.5399533 65.209466,30.5399533 C63.7985186,30.5399533 62.6526508,31.0990209 61.7718281,32.2171729 C60.8910055,33.3353249 60.4506007,34.711051 60.4506007,36.3443925 C60.4506007,37.3824039 60.7523595,38.1818897 61.3558862,38.7428738 C61.9594128,39.3038579 62.8116775,39.5843458 63.9127058,39.5843458 C65.1116033,39.5843458 66.4980626,39.0577155 68.0721253,38.0044393 L68.2556291,38.0044393 L67.4971467,41.1642523 C65.9393955,41.7214202 64.581481,42 63.4233623,42 C61.2702403,42 59.5738666,41.5134394 58.3341902,40.5403037 C57.0945139,39.567168 56.474685,38.2067066 56.474685,36.4588785 C56.474685,33.9936014 57.3045217,31.9863006 58.9642199,30.4369159 C60.6239182,28.8875312 62.7138017,28.1128505 65.2339332,28.1128505 C66.9384881,28.1128505 68.5329163,28.5326282 70.0172656,29.3721963 Z M81.5902387,41.6450935 L77.8345275,41.6450935 L78.2627031,39.9278037 C77.0230267,40.8207989 76.0402718,41.3894069 75.3144086,41.6336449 C74.5885455,41.8778828 73.8382264,42 73.0634287,42 C71.9624004,42 71.0775131,41.7023394 70.4087404,41.1070093 C69.7399676,40.5116793 69.4055862,39.7293662 69.4055862,38.7600467 C69.4055862,37.0580133 70.1457108,35.7586104 71.6259822,34.8617991 C73.1062536,33.9649877 75.885289,33.4135524 79.9631716,33.2074766 L80.0488067,32.8525701 C80.0977413,32.6464943 80.1222082,32.4289731 80.1222082,32.2 C80.1222082,31.0551345 79.0945972,30.4827103 77.0393444,30.4827103 C75.7833565,30.4827103 74.1930062,30.8376133 72.2682455,31.5474299 L72.1336761,31.5474299 L72.818757,28.753972 C74.9147886,28.3189231 76.5948511,28.1014019 77.8589947,28.1014019 C81.8879427,28.1014019 83.9023866,29.2462502 83.9023866,31.5359813 C83.9023866,32.0397221 83.8249079,32.604514 83.6699484,33.2303738 L81.5902387,41.6450935 Z M79.449361,35.0964953 C77.190214,35.2644089 75.6100582,35.5830584 74.7088461,36.0524533 C73.807634,36.5218481 73.3570348,37.1915844 73.3570348,38.0616822 C73.3570348,39.0844288 73.968708,39.5957944 75.1920728,39.5957944 C76.3828145,39.5957944 77.5286823,39.2027298 78.6297107,38.4165888 L79.449361,35.0964953 Z M93.7014895,23.625 L92.9307736,26.7275701 L88.8814564,26.7275701 L89.6521723,23.625 L93.7014895,23.625 Z M92.3680286,28.4792056 L89.1138945,41.6450935 L85.3337162,41.6450935 L88.5878503,28.4792056 L92.3680286,28.4792056 Z M105.763806,28.4792056 L104.82182,32.1084112 L104.699484,32.1084112 C104.063334,31.9633949 103.382338,31.8908879 102.656475,31.8908879 C101.457578,31.8908879 100.242387,32.0855121 99.0108662,32.4747664 L96.796587,41.6450935 L93.0164087,41.6450935 L96.2216084,28.4792056 L100.001787,28.4792056 L99.402341,30.8719626 C100.764354,29.8873783 101.840899,29.2348147 102.632008,28.9142523 C103.423117,28.59369 104.169358,28.4334112 104.870754,28.4334112 C105.123583,28.4334112 105.421264,28.4486759 105.763806,28.4792056 Z M119.000547,35.6116822 L109.042407,35.6116822 C109.009784,35.9322446 108.993473,36.1535819 108.993473,36.2757009 C108.993473,38.4967401 110.445177,39.607243 113.34863,39.607243 C114.775889,39.607243 116.349928,39.1378552 118.070794,38.1990654 L118.242065,38.1990654 L117.520283,41.1757009 C115.685236,41.7252364 114.098963,42 112.761418,42 C110.306532,42 108.424618,41.5210718 107.115617,40.5632009 C105.806617,39.6053301 105.152127,38.2181555 105.152127,36.4016355 C105.152127,34.0203152 105.941185,32.0359114 107.519326,30.4483645 C109.097466,28.8608176 111.134338,28.0670561 113.630002,28.0670561 C117.479524,28.0670561 119.404255,29.6889246 119.404255,32.9327103 C119.404255,33.4440836 119.330855,34.047037 119.184051,34.7415888 L119.000547,35.6116822 Z M109.397181,33.6654206 L115.587376,33.6654206 C115.660778,33.2761663 115.697479,32.913631 115.697479,32.5778037 C115.697479,30.9597271 114.873759,30.1507009 113.226294,30.1507009 C112.288381,30.1507009 111.483011,30.45981 110.810161,31.0780374 C110.13731,31.6962648 109.666322,32.5587172 109.397181,33.6654206 Z" id="Bancaire" fill="#15354E"></path>
            </g>
        </g>
    </g>
</svg>