<?xml version="1.0" encoding="UTF-8"?>
<svg width="181px" height="78px" viewBox="0 0 181 78" version="1.1" xmlns="http://www.w3.org/2000/svg" xmlns:xlink="http://www.w3.org/1999/xlink">
    <!-- Generator: Sketch 51.2 (57519) - http://www.bohemiancoding.com/sketch -->
    <title>logos/payment/cb_fr</title>
    <desc>Created with Sketch.</desc>
    <defs>
        <linearGradient x1="76.7243304%" y1="-54.1438802%" x2="9.56752232%" y2="109.326172%" id="linearGradient-1">
            <stop stop-color="#042655" offset="0%"></stop>
            <stop stop-color="#0979AF" offset="47.8825278%"></stop>
            <stop stop-color="#0A8AC1" offset="58.969512%"></stop>
            <stop stop-color="#379F59" offset="100%"></stop>
        </linearGradient>
    </defs>
    <g id="logos/payment/cb_fr" stroke="none" stroke-width="1" fill="none" fill-rule="evenodd">
        <rect id="Rectangle-3" fill="url(#linearGradient-1)" x="0" y="0" width="181" height="78"></rect>
        <g id="cb" transform="translate(50.000000, 17.000000)" fill="#FFFFFF" fill-rule="nonzero">
            <path d="M78.7047743,8.05471065 C78.7047743,3.73960468 75.2356956,0.938766934 70.9536979,0.931813494 L44.7124513,0.930323471 L44.7124513,15.9134763 L70.9536979,15.8768336 C75.2356956,15.8693835 78.7047743,13.0685457 78.7047743,8.75343974 L78.7047743,8.05471065 Z M78.7047743,25.3552735 C78.7047743,21.0401676 75.2356956,17.5410974 70.9536979,17.5336473 L44.6263316,17.532654 L44.6263316,33.1868333 L70.9536979,33.1868333 C75.2356956,33.1699464 78.7047743,29.6713729 78.7047743,25.3552735 Z M21.4174038,15.8517564 L42.1599013,15.8517564 L42.1599013,15.2648393 C42.1599013,7.4054658 35.8369791,1.03462507 28.0361121,1.03462507 L14.8539089,1.03462507 C7.05304195,1.03462507 0.728640881,7.4054658 0.728640881,15.2648393 L0.728640881,19.0599273 C0.728640881,26.9188041 7.05304195,33.2901415 14.8539089,33.2901415 L28.0361121,33.2901415 C35.8369791,33.2901415 42.1599013,26.9188041 42.1599013,19.0599273 L42.1599013,17.532654 L21.4174038,17.532654 L21.4174038,15.8517564 Z M8.21498858,46.4977034 C7.39171711,48.2921875 6.18638851,49.1787511 4.55414188,49.1787511 C2.23616434,49.1787511 0.43630556,47.2501649 0.43630556,44.7737471 C0.43630556,42.3157062 2.25144663,40.3513595 4.50829503,40.3513595 C6.17110622,40.3513595 7.61996543,41.4271559 8.21498858,43.1004515 L7.08607141,43.1004515 C6.50682351,41.9908812 5.53072918,41.3243444 4.49350572,41.3243444 C2.75477608,41.3243444 1.3971176,42.8277773 1.3971176,44.7573568 C1.3971176,46.685943 2.73949379,48.2067596 4.44765886,48.2067596 C5.54601147,48.2067596 6.30815381,47.7110787 7.08607141,46.4977034 L8.21498858,46.4977034 Z M9.27587494,43.1684959 C9.38235796,41.2061359 10.8879095,40.3622863 12.9771458,40.3622863 C14.5891803,40.3622863 16.3422063,40.8162466 16.3422063,43.0552541 L16.3422063,47.4980054 C16.3422063,47.888888 16.5546794,48.1148748 16.9973726,48.1148748 C17.1211099,48.1148748 17.2630872,48.0820943 17.3513301,48.0508039 L17.3513301,48.9095536 C17.1122203,48.9581387 16.868562,48.9802891 16.6246821,48.9756113 C15.4913281,48.9756113 15.3143494,48.3915224 15.3143494,47.5158857 L15.279348,47.5158857 C14.5004445,48.602609 13.7033008,49.218485 11.9502748,49.218485 C10.2682375,49.218485 8.88740912,48.4560901 8.88740912,46.7698809 C8.88740912,44.4176316 11.3838443,44.3361771 13.7920366,44.0769131 C14.7129175,43.9800616 15.2265995,43.8663232 15.2265995,42.9420124 C15.2265995,41.562748 14.1459941,41.2230228 12.8351684,41.2230228 C11.45434,41.2230228 10.4269761,41.8061184 10.3919747,43.1689926 L9.27587494,43.1689926 L9.27587494,43.1684959 Z M15.2261065,44.4007447 L15.1906122,44.4007447 C15.0486348,44.6451085 14.553193,44.7245763 14.2524771,44.7732504 C12.3574738,45.0826785 10.00203,45.0662882 10.00203,46.7038233 C10.00203,47.7264756 10.9938996,48.3597352 12.0390107,48.3597352 C13.7392881,48.3597352 15.2438537,47.3693668 15.2265995,45.7308384 L15.2265995,44.4007447 L15.2261065,44.4007447 Z M18.1691788,40.5574793 L19.2369668,40.5574793 L19.2369668,41.7698612 C19.5815577,41.1316347 20.4048292,40.5892664 21.6949498,40.5058252 L21.6949498,41.4961936 C20.965837,41.564238 20.6266688,41.6844332 20.1696792,42.0773025 C19.5253584,42.6047706 19.3049977,43.1357154 19.3049977,44.0744297 L19.3049977,48.9751147 L18.1691788,48.9751147 L18.1691788,40.5574793 Z M42.0484885,39.1052038 L43.1838143,39.1052038 L43.1838143,42.0087615 C43.9129272,40.9165748 45.0305059,40.3518562 46.4547163,40.3518562 C48.8791768,40.3518562 50.8954525,42.3325931 50.8954525,44.7230863 C50.8954525,47.1821206 48.9131923,49.1797444 46.4719705,49.1797444 C45.0650143,49.1797444 43.8626436,48.5832387 43.1162765,47.5238325 L43.1162765,48.976108 L42.0484885,48.976108 L42.0484885,39.1052038 Z M43.0990223,44.8254012 C43.0990223,46.7033266 44.6080247,48.2072562 46.4892247,48.2072562 C48.3359163,48.2072562 49.8271715,46.6531625 49.8271715,44.7578535 C49.8271715,42.8446643 48.3521845,41.324841 46.5227471,41.324841 C44.5227397,41.3243444 43.0990223,42.7940035 43.0990223,44.8254012 Z M51.3908943,39.1052038 L52.4586824,39.1052038 L52.4586824,48.9756113 L51.3908943,48.9756113 L51.3908943,39.1052038 Z M54.2284695,45.1671131 C54.3132616,46.8404087 55.7872626,48.2072562 57.4983855,48.2072562 C58.7017422,48.2072562 59.9563685,47.3514865 60.3965969,46.2265193 L61.5664312,46.2265193 C60.9733799,47.9504757 59.2785252,49.1792478 57.4983855,49.1792478 C55.0586427,49.1792478 53.1099049,47.233278 53.1099049,44.7742438 C53.1099049,42.3162028 55.0423745,40.3518562 57.4648631,40.3518562 C59.0581646,40.3518562 60.5326586,41.25779 61.2952939,42.6916886 C61.6517162,43.3572321 61.7862989,43.9894984 61.8198213,45.1671131 L54.2284695,45.1671131 Z M60.6844955,44.1931349 C60.2792684,42.4527883 59.0246421,41.324841 57.4983855,41.324841 C55.8893088,41.324841 54.5503835,42.503449 54.262485,44.1931349 L60.6844955,44.1931349 Z M71.2243423,45.1671131 C71.3091343,46.8404087 72.7831353,48.2072562 74.4952442,48.2072562 C75.6986009,48.2072562 76.9512553,47.3514865 77.3924697,46.2265193 L78.5632899,46.2265193 C77.9692527,47.9504757 76.273412,49.1792478 74.4952442,49.1792478 C72.0545154,49.1792478 70.1057776,47.233278 70.1057776,44.7742438 C70.1057776,42.3162028 72.0382472,40.3518562 74.4617218,40.3518562 C76.0540373,40.3518562 77.5285313,41.25779 78.2911666,42.6916886 C78.6485749,43.3572321 78.7831576,43.9894984 78.81668,45.1671131 L71.2243423,45.1671131 Z M77.6813542,44.1931349 C77.2741552,42.4527883 76.0205149,41.324841 74.4952442,41.324841 C72.8851816,41.324841 71.5462562,42.503449 71.2583577,44.1931349 L77.6813542,44.1931349 Z M27.354818,45.1671131 C27.43961,46.8404087 28.914104,48.2072562 30.625227,48.2072562 C31.8285837,48.2072562 33.082717,47.3514865 33.5234384,46.2265193 L34.6927796,46.2265193 C34.0997284,47.9504757 32.4053667,49.1792478 30.625227,49.1792478 C28.1854841,49.1792478 26.2367463,47.233278 26.2367463,44.7742438 C26.2367463,42.3162028 28.1687229,40.3518562 30.5921975,40.3518562 C32.185006,40.3518562 33.6595,41.25779 34.4226283,42.6916886 C34.7785576,43.3572321 34.9136333,43.9894984 34.9476487,45.1671131 L27.354818,45.1671131 Z M33.8113369,44.1931349 C33.4051239,42.4527883 32.1509906,41.324841 30.625227,41.324841 C29.0156573,41.324841 27.6767319,42.503449 27.3888334,44.1931349 L33.8113369,44.1931349 Z M23.6860837,40.5271822 L26.5936616,40.5271822 L26.5936616,41.4817901 L23.6860837,41.4817901 L23.6860837,46.7803111 C23.6860837,47.518369 23.7935526,47.949979 24.598584,48.0046131 C24.9209909,48.0046131 26.2722407,47.9872295 26.5936616,47.9504757 L26.5936616,48.9244539 C26.2540005,48.9244539 24.9027507,48.9602144 24.5625967,48.9602144 C23.05951,48.9602144 22.5408983,48.4555934 22.5591384,46.8707058 L22.5591384,41.4817901 L22.2751837,41.4817901 L22.2751837,40.5271822 L22.5591384,40.5271822 L22.5591384,39.1052038 L23.6860837,39.1052038 L23.6860837,40.5271822 Z M68.4873344,40.5842997 L68.4873344,45.2291974 C68.4873344,47.0986793 67.5284942,48.2236465 65.9154737,48.23358 C64.3009742,48.2236465 63.343613,47.0986793 63.343613,45.2291974 L63.343613,40.5842997 L62.275825,40.5842997 L62.275825,45.2291974 C62.275825,47.756276 63.5467195,49.2085516 65.7661017,49.2085516 C65.8178643,49.2085516 65.8642041,49.2015981 65.9154737,49.1996114 C65.9657573,49.2015981 66.0116042,49.2085516 66.0638597,49.2085516 C68.2832419,49.2085516 69.5541364,47.756276 69.5541364,45.2291974 L69.5541364,40.5842997 L68.4873344,40.5842997 Z" id="Shape"></path>
        </g>
    </g>
</svg>