<svg xmlns="http://www.w3.org/2000/svg" viewBox="0 0 100 40" width="100" height="40"><defs><mask id="a" x="14.169" y="-7.719" width="68.663" height="53.748" maskUnits="userSpaceOnUse"><path d="M49.475 15.934c-.032 2.488 2.276 3.877 4.015 4.7 1.786.847 2.387 1.39 2.38 2.148-.014 1.159-1.425 1.671-2.747 1.691a9.782 9.782 0 0 1-4.71-1.092l-.83 3.786a14.1 14.1 0 0 0 5.1.917c4.818 0 7.97-2.317 7.987-5.91.019-4.561-6.473-4.813-6.428-6.851.015-.618.62-1.278 1.946-1.446a8.848 8.848 0 0 1 4.523.773l.807-3.663a12.583 12.583 0 0 0-4.293-.768c-4.535 0-7.724 2.349-7.75 5.712m19.791-5.4a2.091 2.091 0 0 0-1.952 1.267l-6.882 16.02h4.814l.958-2.58h5.883l.556 2.58h4.243l-3.7-17.28h-3.92m.673 4.668l1.389 6.494h-3.805l2.416-6.489m-26.3-4.668l-3.795 17.28h4.588l3.793-17.28h-4.587m-6.787 0L32.076 22.3l-1.931-10a2.124 2.124 0 0 0-2.116-1.761h-7.806l-.109.5a19.4 19.4 0 0 1 4.526 1.47 1.893 1.893 0 0 1 1.089 1.518l3.659 13.79h4.848l7.433-17.28h-4.818" fill="#fff"/></mask><linearGradient id="b" x1=".161" y1="71.195" x2=".858" y2="70.875" gradientTransform="matrix(68.663 0 0 53.748 14.169 -3799.086)" gradientUnits="userSpaceOnUse"><stop offset="0" stop-color="#222357"/><stop offset="1" stop-color="#254aa5"/></linearGradient></defs><g mask="url(#a)"><path fill="url(#b)" d="M14.169 12.356L70.106-7.719l12.726 33.673-55.937 20.075"/></g></svg>
